<mxfile host="www.draw.io" modified="2019-10-28T12:18:15.714Z" agent="Mozilla/5.0 (Windows NT 10.0; Win64; x64) AppleWebKit/537.36 (KHTML, like Gecko) Chrome/76.0.3809.132 Safari/537.36 OPR/63.0.3368.107" etag="T0vWj3U96eL8tlhsOZZE" version="12.1.7" type="github" pages="1">
  <diagram name="Page-1" id="0783ab3e-0a74-02c8-0abd-f7b4e66b4bec">
    <mxGraphModel dx="828" dy="451" grid="1" gridSize="10" guides="1" tooltips="1" connect="1" arrows="1" fold="1" page="1" pageScale="1" pageWidth="850" pageHeight="1100" background="#ffffff" math="0" shadow="0">
      <root>
        <mxCell id="0"/>
        <mxCell id="1" parent="0"/>
        <mxCell id="1c1d494c118603dd-1" value="Afiliarse a club" style="swimlane;html=1;childLayout=stackLayout;startSize=20;rounded=0;shadow=0;comic=0;labelBackgroundColor=none;strokeColor=#000000;strokeWidth=1;fillColor=#ffffff;fontFamily=Verdana;fontSize=12;fontColor=#000000;align=center;" parent="1" vertex="1">
          <mxGeometry x="40" y="20" width="890" height="1640" as="geometry"/>
        </mxCell>
        <mxCell id="1c1d494c118603dd-2" value="Actor" style="swimlane;html=1;startSize=20;" parent="1c1d494c118603dd-1" vertex="1">
          <mxGeometry y="20" width="440" height="1620" as="geometry"/>
        </mxCell>
        <mxCell id="60571a20871a0731-4" value="" style="ellipse;whiteSpace=wrap;html=1;rounded=0;shadow=0;comic=0;labelBackgroundColor=none;strokeColor=#000000;strokeWidth=1;fillColor=#000000;fontFamily=Verdana;fontSize=12;fontColor=#000000;align=center;" parent="1c1d494c118603dd-2" vertex="1">
          <mxGeometry x="85" y="50" width="40" height="40" as="geometry"/>
        </mxCell>
        <mxCell id="60571a20871a0731-8" value="Hace click en &quot;Club de lectura&quot;" style="rounded=1;whiteSpace=wrap;html=1;shadow=0;comic=0;labelBackgroundColor=none;strokeColor=#000000;strokeWidth=1;fillColor=#ffffff;fontFamily=Verdana;fontSize=12;fontColor=#000000;align=center;arcSize=50;" parent="1c1d494c118603dd-2" vertex="1">
          <mxGeometry x="160" y="130" width="140" height="40" as="geometry"/>
        </mxCell>
        <mxCell id="Fnhvqr48JZqmPGI6LzLJ-7" value="" style="rounded=0;whiteSpace=wrap;html=1;fillColor=#000000;strokeColor=#000000;" vertex="1" parent="1c1d494c118603dd-2">
          <mxGeometry x="140" y="310" width="150" height="10" as="geometry"/>
        </mxCell>
        <mxCell id="Fnhvqr48JZqmPGI6LzLJ-10" value="Hace click en &quot;Mi club de lectura&quot;" style="rounded=1;whiteSpace=wrap;html=1;shadow=0;comic=0;labelBackgroundColor=none;strokeColor=#000000;strokeWidth=1;fillColor=#ffffff;fontFamily=Verdana;fontSize=12;fontColor=#000000;align=center;arcSize=50;" vertex="1" parent="1c1d494c118603dd-2">
          <mxGeometry x="215" y="350" width="140" height="40" as="geometry"/>
        </mxCell>
        <mxCell id="Fnhvqr48JZqmPGI6LzLJ-14" value="Hace click en botón explorar clubes de lectura" style="rounded=1;whiteSpace=wrap;html=1;shadow=0;comic=0;labelBackgroundColor=none;strokeColor=#000000;strokeWidth=1;fillColor=#ffffff;fontFamily=Verdana;fontSize=12;fontColor=#000000;align=center;arcSize=50;" vertex="1" parent="1c1d494c118603dd-2">
          <mxGeometry x="220" y="440" width="140" height="50" as="geometry"/>
        </mxCell>
        <mxCell id="Fnhvqr48JZqmPGI6LzLJ-8" style="rounded=0;orthogonalLoop=1;jettySize=auto;html=1;entryX=0;entryY=0.5;entryDx=0;entryDy=0;edgeStyle=orthogonalEdgeStyle;" edge="1" parent="1c1d494c118603dd-2" source="Fnhvqr48JZqmPGI6LzLJ-7" target="Fnhvqr48JZqmPGI6LzLJ-14">
          <mxGeometry relative="1" as="geometry">
            <mxPoint x="150" y="350" as="targetPoint"/>
            <Array as="points">
              <mxPoint x="160" y="465"/>
            </Array>
          </mxGeometry>
        </mxCell>
        <mxCell id="Fnhvqr48JZqmPGI6LzLJ-19" value="Selecciona un club de lectura y hace click en &quot;Unirse a club&quot;" style="rounded=1;whiteSpace=wrap;html=1;shadow=0;comic=0;labelBackgroundColor=none;strokeColor=#000000;strokeWidth=1;fillColor=#ffffff;fontFamily=Verdana;fontSize=12;fontColor=#000000;align=center;arcSize=50;" vertex="1" parent="1c1d494c118603dd-2">
          <mxGeometry x="210" y="700" width="140" height="70" as="geometry"/>
        </mxCell>
        <mxCell id="Fnhvqr48JZqmPGI6LzLJ-24" style="rounded=0;orthogonalLoop=1;jettySize=auto;html=1;exitX=0.5;exitY=1;exitDx=0;exitDy=0;entryX=0.75;entryY=0;entryDx=0;entryDy=0;" edge="1" parent="1c1d494c118603dd-2" source="Fnhvqr48JZqmPGI6LzLJ-23" target="Fnhvqr48JZqmPGI6LzLJ-19">
          <mxGeometry relative="1" as="geometry"/>
        </mxCell>
        <mxCell id="Fnhvqr48JZqmPGI6LzLJ-23" value="" style="rounded=0;whiteSpace=wrap;html=1;fillColor=#000000;strokeColor=#000000;" vertex="1" parent="1c1d494c118603dd-2">
          <mxGeometry x="140" y="650" width="150" height="10" as="geometry"/>
        </mxCell>
        <mxCell id="Fnhvqr48JZqmPGI6LzLJ-26" value="Selecciona un club de lectura y hace click en &quot;Afiliar niño/a a club&quot;" style="rounded=1;whiteSpace=wrap;html=1;shadow=0;comic=0;labelBackgroundColor=none;strokeColor=#000000;strokeWidth=1;fillColor=#ffffff;fontFamily=Verdana;fontSize=12;fontColor=#000000;align=center;arcSize=50;" vertex="1" parent="1c1d494c118603dd-2">
          <mxGeometry x="30" y="700" width="140" height="70" as="geometry"/>
        </mxCell>
        <mxCell id="Fnhvqr48JZqmPGI6LzLJ-29" value="Rellena datos" style="rounded=1;whiteSpace=wrap;html=1;shadow=0;comic=0;labelBackgroundColor=none;strokeColor=#000000;strokeWidth=1;fillColor=#ffffff;fontFamily=Verdana;fontSize=12;fontColor=#000000;align=center;arcSize=50;" vertex="1" parent="1c1d494c118603dd-2">
          <mxGeometry x="140" y="910" width="140" height="40" as="geometry"/>
        </mxCell>
        <mxCell id="Fnhvqr48JZqmPGI6LzLJ-50" style="edgeStyle=orthogonalEdgeStyle;rounded=0;orthogonalLoop=1;jettySize=auto;html=1;exitX=0;exitY=0.5;exitDx=0;exitDy=0;entryX=0;entryY=0.5;entryDx=0;entryDy=0;endArrow=classic;endFill=1;" edge="1" parent="1c1d494c118603dd-2" source="Fnhvqr48JZqmPGI6LzLJ-49" target="Fnhvqr48JZqmPGI6LzLJ-29">
          <mxGeometry relative="1" as="geometry"/>
        </mxCell>
        <mxCell id="Fnhvqr48JZqmPGI6LzLJ-49" value="Confirmación de mensaje" style="rounded=1;whiteSpace=wrap;html=1;shadow=0;comic=0;labelBackgroundColor=none;strokeColor=#000000;strokeWidth=1;fillColor=#ffffff;fontFamily=Verdana;fontSize=12;fontColor=#000000;align=center;arcSize=50;" vertex="1" parent="1c1d494c118603dd-2">
          <mxGeometry x="180" y="1320" width="120" height="60" as="geometry"/>
        </mxCell>
        <mxCell id="1c1d494c118603dd-4" value="Sistema" style="swimlane;html=1;startSize=20;" parent="1c1d494c118603dd-1" vertex="1">
          <mxGeometry x="440" y="20" width="450" height="1620" as="geometry"/>
        </mxCell>
        <mxCell id="Fnhvqr48JZqmPGI6LzLJ-4" value="" style="edgeStyle=orthogonalEdgeStyle;rounded=0;orthogonalLoop=1;jettySize=auto;html=1;" edge="1" parent="1c1d494c118603dd-4" source="Fnhvqr48JZqmPGI6LzLJ-1" target="Fnhvqr48JZqmPGI6LzLJ-3">
          <mxGeometry relative="1" as="geometry"/>
        </mxCell>
        <mxCell id="Fnhvqr48JZqmPGI6LzLJ-1" value="Muestra interfaz Dropdown clubes de lectura" style="rounded=1;whiteSpace=wrap;html=1;shadow=0;comic=0;labelBackgroundColor=none;strokeColor=#000000;strokeWidth=1;fillColor=#ffffff;fontFamily=Verdana;fontSize=12;fontColor=#000000;align=center;arcSize=50;" vertex="1" parent="1c1d494c118603dd-4">
          <mxGeometry x="150" y="120" width="140" height="60" as="geometry"/>
        </mxCell>
        <mxCell id="Fnhvqr48JZqmPGI6LzLJ-6" value="" style="edgeStyle=orthogonalEdgeStyle;rounded=0;orthogonalLoop=1;jettySize=auto;html=1;" edge="1" parent="1c1d494c118603dd-4" source="Fnhvqr48JZqmPGI6LzLJ-3">
          <mxGeometry relative="1" as="geometry">
            <mxPoint x="-240" y="310" as="targetPoint"/>
            <Array as="points">
              <mxPoint x="-240" y="280"/>
            </Array>
          </mxGeometry>
        </mxCell>
        <mxCell id="Fnhvqr48JZqmPGI6LzLJ-3" value="&amp;gt; Mi club de lectura&lt;br&gt;&amp;gt; Explorar clubes de lectura" style="rounded=0;whiteSpace=wrap;html=1;shadow=0;comic=0;labelBackgroundColor=none;strokeColor=#000000;strokeWidth=1;fillColor=#ffffff;fontFamily=Verdana;fontSize=12;fontColor=#000000;align=center;arcSize=50;" vertex="1" parent="1c1d494c118603dd-4">
          <mxGeometry x="150" y="260" width="140" height="60" as="geometry"/>
        </mxCell>
        <mxCell id="Fnhvqr48JZqmPGI6LzLJ-12" value="Muestra mensaje &quot;usted no está asociado a ningún club de lectura, haga click aquí para explorar clubes de lectura&quot;" style="rounded=1;whiteSpace=wrap;html=1;shadow=0;comic=0;labelBackgroundColor=none;strokeColor=#000000;strokeWidth=1;fillColor=#ffffff;fontFamily=Verdana;fontSize=12;fontColor=#000000;align=center;arcSize=50;" vertex="1" parent="1c1d494c118603dd-4">
          <mxGeometry x="120" y="410" width="230" height="90" as="geometry"/>
        </mxCell>
        <mxCell id="Fnhvqr48JZqmPGI6LzLJ-18" value="" style="edgeStyle=orthogonalEdgeStyle;rounded=0;orthogonalLoop=1;jettySize=auto;html=1;" edge="1" parent="1c1d494c118603dd-4" source="Fnhvqr48JZqmPGI6LzLJ-15" target="Fnhvqr48JZqmPGI6LzLJ-17">
          <mxGeometry relative="1" as="geometry"/>
        </mxCell>
        <mxCell id="Fnhvqr48JZqmPGI6LzLJ-15" value="Muestra interfaz lista de clubes de lectura" style="rounded=1;whiteSpace=wrap;html=1;shadow=0;comic=0;labelBackgroundColor=none;strokeColor=#000000;strokeWidth=1;fillColor=#ffffff;fontFamily=Verdana;fontSize=12;fontColor=#000000;align=center;arcSize=50;" vertex="1" parent="1c1d494c118603dd-4">
          <mxGeometry x="160" y="590" width="140" height="50" as="geometry"/>
        </mxCell>
        <mxCell id="Fnhvqr48JZqmPGI6LzLJ-17" value="Clubes de lectura" style="rounded=0;whiteSpace=wrap;html=1;shadow=0;comic=0;labelBackgroundColor=none;strokeColor=#000000;strokeWidth=1;fillColor=#ffffff;fontFamily=Verdana;fontSize=12;fontColor=#000000;align=center;arcSize=50;" vertex="1" parent="1c1d494c118603dd-4">
          <mxGeometry x="160" y="720" width="140" height="50" as="geometry"/>
        </mxCell>
        <mxCell id="Fnhvqr48JZqmPGI6LzLJ-22" value="Muestra interfaz formulario afiliación club de lectura" style="rounded=1;whiteSpace=wrap;html=1;shadow=0;comic=0;labelBackgroundColor=none;strokeColor=#000000;strokeWidth=1;fillColor=#ffffff;fontFamily=Verdana;fontSize=12;fontColor=#000000;align=center;arcSize=50;" vertex="1" parent="1c1d494c118603dd-4">
          <mxGeometry x="250" y="880" width="140" height="70" as="geometry"/>
        </mxCell>
        <mxCell id="Fnhvqr48JZqmPGI6LzLJ-32" value="" style="rhombus;whiteSpace=wrap;html=1;rounded=1;strokeColor=#000000;fillColor=#FFFFFF;" vertex="1" parent="1c1d494c118603dd-4">
          <mxGeometry x="190" y="1010" width="80" height="80" as="geometry"/>
        </mxCell>
        <mxCell id="Fnhvqr48JZqmPGI6LzLJ-35" value="Datos son válidos" style="text;html=1;resizable=0;points=[];autosize=1;align=left;verticalAlign=top;spacingTop=-4;" vertex="1" parent="1c1d494c118603dd-4">
          <mxGeometry x="90" y="1030" width="110" height="20" as="geometry"/>
        </mxCell>
        <mxCell id="Fnhvqr48JZqmPGI6LzLJ-38" value="Datos son inválidos" style="text;html=1;resizable=0;points=[];autosize=1;align=left;verticalAlign=top;spacingTop=-4;" vertex="1" parent="1c1d494c118603dd-4">
          <mxGeometry x="280" y="1030" width="120" height="20" as="geometry"/>
        </mxCell>
        <mxCell id="Fnhvqr48JZqmPGI6LzLJ-41" value="" style="edgeStyle=orthogonalEdgeStyle;rounded=0;orthogonalLoop=1;jettySize=auto;html=1;endArrow=classic;endFill=1;" edge="1" parent="1c1d494c118603dd-4" source="Fnhvqr48JZqmPGI6LzLJ-39" target="Fnhvqr48JZqmPGI6LzLJ-40">
          <mxGeometry relative="1" as="geometry"/>
        </mxCell>
        <mxCell id="Fnhvqr48JZqmPGI6LzLJ-39" value="Muestra mensaje &quot;Usted ahora está afiliado a club&quot;" style="rounded=1;whiteSpace=wrap;html=1;shadow=0;comic=0;labelBackgroundColor=none;strokeColor=#000000;strokeWidth=1;fillColor=#ffffff;fontFamily=Verdana;fontSize=12;fontColor=#000000;align=center;arcSize=50;" vertex="1" parent="1c1d494c118603dd-4">
          <mxGeometry x="10" y="1070" width="120" height="60" as="geometry"/>
        </mxCell>
        <mxCell id="Fnhvqr48JZqmPGI6LzLJ-43" value="" style="edgeStyle=orthogonalEdgeStyle;rounded=0;orthogonalLoop=1;jettySize=auto;html=1;endArrow=classic;endFill=1;" edge="1" parent="1c1d494c118603dd-4" source="Fnhvqr48JZqmPGI6LzLJ-40" target="Fnhvqr48JZqmPGI6LzLJ-42">
          <mxGeometry relative="1" as="geometry"/>
        </mxCell>
        <mxCell id="Fnhvqr48JZqmPGI6LzLJ-40" value="Muestra mensaje &quot;Usted ahora está afiliado a club&quot;" style="rounded=1;whiteSpace=wrap;html=1;shadow=0;comic=0;labelBackgroundColor=none;strokeColor=#000000;strokeWidth=1;fillColor=#ffffff;fontFamily=Verdana;fontSize=12;fontColor=#000000;align=center;arcSize=50;" vertex="1" parent="1c1d494c118603dd-4">
          <mxGeometry x="10" y="1210" width="120" height="60" as="geometry"/>
        </mxCell>
        <mxCell id="Fnhvqr48JZqmPGI6LzLJ-42" value="Activa caso de uso pago de membresía" style="rounded=1;whiteSpace=wrap;html=1;shadow=0;comic=0;labelBackgroundColor=none;strokeColor=#000000;strokeWidth=1;fillColor=#ffffff;fontFamily=Verdana;fontSize=12;fontColor=#000000;align=center;arcSize=50;" vertex="1" parent="1c1d494c118603dd-4">
          <mxGeometry x="10" y="1350" width="120" height="60" as="geometry"/>
        </mxCell>
        <mxCell id="60571a20871a0731-5" value="" style="shape=mxgraph.bpmn.shape;html=1;verticalLabelPosition=bottom;labelBackgroundColor=#ffffff;verticalAlign=top;perimeter=ellipsePerimeter;outline=end;symbol=terminate;rounded=0;shadow=0;comic=0;strokeColor=#000000;strokeWidth=1;fillColor=#ffffff;fontFamily=Verdana;fontSize=12;fontColor=#000000;align=center;" parent="1c1d494c118603dd-4" vertex="1">
          <mxGeometry x="50" y="1440" width="40" height="40" as="geometry"/>
        </mxCell>
        <mxCell id="1c1d494c118603dd-45" style="edgeStyle=none;rounded=0;html=1;labelBackgroundColor=none;startArrow=none;startFill=0;startSize=5;endArrow=classicThin;endFill=1;endSize=5;jettySize=auto;orthogonalLoop=1;strokeColor=#000000;strokeWidth=1;fontFamily=Verdana;fontSize=12;fontColor=#000000;exitX=0.5;exitY=1;exitDx=0;exitDy=0;" parent="1c1d494c118603dd-4" source="Fnhvqr48JZqmPGI6LzLJ-42" target="60571a20871a0731-5" edge="1">
          <mxGeometry relative="1" as="geometry">
            <mxPoint x="130" y="1480" as="sourcePoint"/>
          </mxGeometry>
        </mxCell>
        <mxCell id="Fnhvqr48JZqmPGI6LzLJ-46" value="" style="edgeStyle=orthogonalEdgeStyle;rounded=0;orthogonalLoop=1;jettySize=auto;html=1;endArrow=classic;endFill=1;" edge="1" parent="1c1d494c118603dd-4" source="Fnhvqr48JZqmPGI6LzLJ-44" target="Fnhvqr48JZqmPGI6LzLJ-45">
          <mxGeometry relative="1" as="geometry"/>
        </mxCell>
        <mxCell id="Fnhvqr48JZqmPGI6LzLJ-44" value="Muestra mensaje &quot;los siguientes datos son inválidos&quot;" style="rounded=1;whiteSpace=wrap;html=1;shadow=0;comic=0;labelBackgroundColor=none;strokeColor=#000000;strokeWidth=1;fillColor=#ffffff;fontFamily=Verdana;fontSize=12;fontColor=#000000;align=center;arcSize=50;" vertex="1" parent="1c1d494c118603dd-4">
          <mxGeometry x="300" y="1070" width="140" height="60" as="geometry"/>
        </mxCell>
        <mxCell id="Fnhvqr48JZqmPGI6LzLJ-48" value="" style="edgeStyle=orthogonalEdgeStyle;rounded=0;orthogonalLoop=1;jettySize=auto;html=1;endArrow=classic;endFill=1;" edge="1" parent="1c1d494c118603dd-4" source="Fnhvqr48JZqmPGI6LzLJ-45">
          <mxGeometry relative="1" as="geometry">
            <mxPoint x="-200" y="1320" as="targetPoint"/>
            <Array as="points">
              <mxPoint x="370" y="1520"/>
              <mxPoint x="-50" y="1520"/>
              <mxPoint x="-50" y="1290"/>
            </Array>
          </mxGeometry>
        </mxCell>
        <mxCell id="Fnhvqr48JZqmPGI6LzLJ-45" value="Lista de datos inválidos y ejemplos válidos" style="rounded=0;whiteSpace=wrap;html=1;shadow=0;comic=0;labelBackgroundColor=none;strokeColor=#000000;strokeWidth=1;fillColor=#ffffff;fontFamily=Verdana;fontSize=12;fontColor=#000000;align=center;arcSize=50;" vertex="1" parent="1c1d494c118603dd-4">
          <mxGeometry x="300" y="1210" width="140" height="60" as="geometry"/>
        </mxCell>
        <mxCell id="Fnhvqr48JZqmPGI6LzLJ-52" value="Activa caso de uso afiliar representado a club" style="rounded=1;whiteSpace=wrap;html=1;shadow=0;comic=0;labelBackgroundColor=none;strokeColor=#000000;strokeWidth=1;fillColor=#ffffff;fontFamily=Verdana;fontSize=12;fontColor=#000000;align=center;arcSize=50;" vertex="1" parent="1c1d494c118603dd-4">
          <mxGeometry x="20" y="860" width="140" height="50" as="geometry"/>
        </mxCell>
        <mxCell id="1c1d494c118603dd-27" style="edgeStyle=orthogonalEdgeStyle;rounded=0;html=1;labelBackgroundColor=none;startArrow=none;startFill=0;startSize=5;endArrow=classicThin;endFill=1;endSize=5;jettySize=auto;orthogonalLoop=1;strokeColor=#000000;strokeWidth=1;fontFamily=Verdana;fontSize=12;fontColor=#000000;" parent="1c1d494c118603dd-1" source="60571a20871a0731-4" edge="1">
          <mxGeometry relative="1" as="geometry">
            <mxPoint x="210" y="150" as="targetPoint"/>
            <Array as="points">
              <mxPoint x="105" y="130"/>
              <mxPoint x="210" y="130"/>
            </Array>
          </mxGeometry>
        </mxCell>
        <mxCell id="Fnhvqr48JZqmPGI6LzLJ-2" value="" style="edgeStyle=orthogonalEdgeStyle;rounded=0;orthogonalLoop=1;jettySize=auto;html=1;" edge="1" parent="1c1d494c118603dd-1" source="60571a20871a0731-8" target="Fnhvqr48JZqmPGI6LzLJ-1">
          <mxGeometry relative="1" as="geometry"/>
        </mxCell>
        <mxCell id="Fnhvqr48JZqmPGI6LzLJ-16" value="" style="edgeStyle=orthogonalEdgeStyle;rounded=0;orthogonalLoop=1;jettySize=auto;html=1;" edge="1" parent="1c1d494c118603dd-1" source="Fnhvqr48JZqmPGI6LzLJ-14" target="Fnhvqr48JZqmPGI6LzLJ-15">
          <mxGeometry relative="1" as="geometry">
            <Array as="points">
              <mxPoint x="290" y="570"/>
              <mxPoint x="680" y="570"/>
            </Array>
          </mxGeometry>
        </mxCell>
        <mxCell id="Fnhvqr48JZqmPGI6LzLJ-20" value="" style="edgeStyle=orthogonalEdgeStyle;rounded=0;orthogonalLoop=1;jettySize=auto;html=1;entryX=1;entryY=0.25;entryDx=0;entryDy=0;" edge="1" parent="1c1d494c118603dd-1" source="Fnhvqr48JZqmPGI6LzLJ-17" target="Fnhvqr48JZqmPGI6LzLJ-23">
          <mxGeometry relative="1" as="geometry">
            <Array as="points">
              <mxPoint x="400" y="765"/>
              <mxPoint x="400" y="673"/>
            </Array>
          </mxGeometry>
        </mxCell>
        <mxCell id="Fnhvqr48JZqmPGI6LzLJ-31" value="" style="edgeStyle=orthogonalEdgeStyle;rounded=0;orthogonalLoop=1;jettySize=auto;html=1;endArrow=classic;endFill=1;entryX=0.5;entryY=0;entryDx=0;entryDy=0;" edge="1" parent="1c1d494c118603dd-1" source="Fnhvqr48JZqmPGI6LzLJ-29" target="Fnhvqr48JZqmPGI6LzLJ-32">
          <mxGeometry relative="1" as="geometry">
            <mxPoint x="600" y="1030" as="targetPoint"/>
            <Array as="points">
              <mxPoint x="210" y="1010"/>
              <mxPoint x="670" y="1010"/>
            </Array>
          </mxGeometry>
        </mxCell>
        <mxCell id="Fnhvqr48JZqmPGI6LzLJ-28" style="edgeStyle=orthogonalEdgeStyle;rounded=0;orthogonalLoop=1;jettySize=auto;html=1;endArrow=classic;endFill=1;" edge="1" parent="1c1d494c118603dd-1" target="Fnhvqr48JZqmPGI6LzLJ-29">
          <mxGeometry relative="1" as="geometry">
            <mxPoint x="210" y="930" as="targetPoint"/>
            <mxPoint x="690" y="950" as="sourcePoint"/>
            <Array as="points">
              <mxPoint x="690" y="950"/>
            </Array>
          </mxGeometry>
        </mxCell>
        <mxCell id="Fnhvqr48JZqmPGI6LzLJ-21" style="edgeStyle=orthogonalEdgeStyle;rounded=0;orthogonalLoop=1;jettySize=auto;html=1;entryX=0.5;entryY=0;entryDx=0;entryDy=0;" edge="1" parent="1c1d494c118603dd-1" source="Fnhvqr48JZqmPGI6LzLJ-19" target="Fnhvqr48JZqmPGI6LzLJ-22">
          <mxGeometry relative="1" as="geometry">
            <mxPoint x="680" y="880" as="targetPoint"/>
            <Array as="points">
              <mxPoint x="290" y="830"/>
              <mxPoint x="760" y="830"/>
            </Array>
          </mxGeometry>
        </mxCell>
        <mxCell id="Fnhvqr48JZqmPGI6LzLJ-9" style="edgeStyle=none;rounded=0;orthogonalLoop=1;jettySize=auto;html=1;" edge="1" parent="1" source="Fnhvqr48JZqmPGI6LzLJ-7">
          <mxGeometry relative="1" as="geometry">
            <mxPoint x="310" y="390" as="targetPoint"/>
          </mxGeometry>
        </mxCell>
        <mxCell id="Fnhvqr48JZqmPGI6LzLJ-11" style="edgeStyle=orthogonalEdgeStyle;rounded=0;orthogonalLoop=1;jettySize=auto;html=1;" edge="1" parent="1" source="Fnhvqr48JZqmPGI6LzLJ-10">
          <mxGeometry relative="1" as="geometry">
            <mxPoint x="710" y="450" as="targetPoint"/>
          </mxGeometry>
        </mxCell>
        <mxCell id="Fnhvqr48JZqmPGI6LzLJ-13" style="edgeStyle=orthogonalEdgeStyle;rounded=0;orthogonalLoop=1;jettySize=auto;html=1;" edge="1" parent="1" source="Fnhvqr48JZqmPGI6LzLJ-12">
          <mxGeometry relative="1" as="geometry">
            <mxPoint x="400" y="495" as="targetPoint"/>
          </mxGeometry>
        </mxCell>
        <mxCell id="Fnhvqr48JZqmPGI6LzLJ-25" style="edgeStyle=none;rounded=0;orthogonalLoop=1;jettySize=auto;html=1;exitX=0.25;exitY=1;exitDx=0;exitDy=0;" edge="1" parent="1" source="Fnhvqr48JZqmPGI6LzLJ-23">
          <mxGeometry relative="1" as="geometry">
            <mxPoint x="160" y="740" as="targetPoint"/>
          </mxGeometry>
        </mxCell>
        <mxCell id="Fnhvqr48JZqmPGI6LzLJ-34" style="edgeStyle=orthogonalEdgeStyle;rounded=0;orthogonalLoop=1;jettySize=auto;html=1;exitX=0;exitY=0.5;exitDx=0;exitDy=0;endArrow=classic;endFill=1;" edge="1" parent="1" source="Fnhvqr48JZqmPGI6LzLJ-32">
          <mxGeometry relative="1" as="geometry">
            <mxPoint x="550" y="1110" as="targetPoint"/>
            <Array as="points">
              <mxPoint x="550" y="1090"/>
            </Array>
          </mxGeometry>
        </mxCell>
        <mxCell id="Fnhvqr48JZqmPGI6LzLJ-37" style="edgeStyle=orthogonalEdgeStyle;rounded=0;orthogonalLoop=1;jettySize=auto;html=1;exitX=1;exitY=0.5;exitDx=0;exitDy=0;endArrow=classic;endFill=1;" edge="1" parent="1" source="Fnhvqr48JZqmPGI6LzLJ-32">
          <mxGeometry relative="1" as="geometry">
            <mxPoint x="890" y="1110" as="targetPoint"/>
            <Array as="points">
              <mxPoint x="890" y="1090"/>
            </Array>
          </mxGeometry>
        </mxCell>
        <mxCell id="Fnhvqr48JZqmPGI6LzLJ-51" style="edgeStyle=orthogonalEdgeStyle;rounded=0;orthogonalLoop=1;jettySize=auto;html=1;endArrow=classic;endFill=1;" edge="1" parent="1" source="Fnhvqr48JZqmPGI6LzLJ-26">
          <mxGeometry relative="1" as="geometry">
            <mxPoint x="540" y="900" as="targetPoint"/>
            <Array as="points">
              <mxPoint x="140" y="870"/>
              <mxPoint x="540" y="870"/>
            </Array>
          </mxGeometry>
        </mxCell>
      </root>
    </mxGraphModel>
  </diagram>
</mxfile>
